<?xml version="1.0" encoding="utf-8"?>
<!-- Generator: Adobe Illustrator 22.0.0, SVG Export Plug-In . SVG Version: 6.00 Build 0)  -->
<svg version="1.1" id="Capa_1" xmlns="http://www.w3.org/2000/svg" xmlns:xlink="http://www.w3.org/1999/xlink" x="0px" y="0px"
	 viewBox="0 0 512 512" style="enable-background:new 0 0 512 512;" xml:space="preserve">
<style type="text/css">
	.st0{fill:#323232;}
	.st1{opacity:0.15;fill:#8E8E8E;enable-background:new    ;}
	.st2{fill:#FF5F00;}
	.st3{fill:#EB001B;}
	.st4{fill:#F79E1B;}
</style>
<path class="st0" d="M512,402.3c0,16.7-13.5,30.3-30.3,30.3H30.3C13.6,432.5,0,419,0,402.3V109.7C0,93,13.6,79.5,30.3,79.5h451.5
	c16.7,0,30.3,13.6,30.3,30.3L512,402.3L512,402.3z"/>
<path class="st1" d="M21.5,402.3V109.7c0-16.7,13.6-30.3,30.3-30.3H30.3C13.6,79.5,0,93,0,109.7v292.6c0,16.7,13.6,30.3,30.3,30.3
	h21.5C35.1,432.5,21.5,419,21.5,402.3z"/>
<g>
	<path class="st2" d="M310.4,353.8H201.6V158.2h108.8L310.4,353.8z"/>
	<path class="st3" d="M208.5,256c0-39.7,18.6-75,47.5-97.8c-21.9-17.3-49-26.6-76.9-26.6c-68.7,0-124.4,55.7-124.4,124.4
		s55.7,124.4,124.4,124.4c27.9,0,55-9.3,76.9-26.6C227.1,331,208.5,295.7,208.5,256"/>
	<path class="st4" d="M457.3,256c0,68.7-55.7,124.4-124.4,124.4c-27.9,0-55-9.3-76.9-26.6c28.9-22.8,47.5-58.1,47.5-97.8
		s-18.6-75-47.5-97.8c21.9-17.3,49-26.6,76.9-26.6C401.6,131.6,457.3,187.3,457.3,256"/>
</g>
</svg>
